<svg xmlns="http://www.w3.org/2000/svg" width="76.416" height="74.657" viewBox="0 0 76.416 74.657">
  <g id="np_deposit_700315_000000" transform="translate(-4.219 -0.938)">
    <path id="Path_14" data-name="Path 14" d="M32.017,56.086a2.493,2.493,0,0,1-4.985,0,2.493,2.493,0,0,1,4.985,0" transform="translate(-5.483 -12.657)" fill="#2c2b34"/>
    <path id="Path_15" data-name="Path 15" d="M69.5,44.711a5.761,5.761,0,0,0-4.392-.356c-.119,0-.237.119-.356.119l-.475.237-.237-.475a23.06,23.06,0,0,0-9.614-8.783C50.509,33.436,44.1,32.13,37.452,32.13A39.807,39.807,0,0,0,26.77,33.436h-.237l-.237-.119a30.333,30.333,0,0,0-6.291-2.611,4.267,4.267,0,0,0-1.306-.237,5.039,5.039,0,0,0-3.8,1.78,4.467,4.467,0,0,0-.712,4.036c.356,1.068.712,2.492,1.068,3.561l.119.237-.237.237a20.751,20.751,0,0,0-4.392,6.765l-.237.593h-.356a16.086,16.086,0,0,1-2.374.237,3.91,3.91,0,0,0-3.561,3.8v7.478a3.958,3.958,0,0,0,3.442,3.917l2.849.475.119.237a23.744,23.744,0,0,0,4.985,7.359l.237.237-.119.831c0,.237-.119.356-.119.475L14.9,78.064a4.314,4.314,0,0,0,.95,3.2,4,4,0,0,0,3.086,1.424H26.3a3.725,3.725,0,0,0,2.492-.831l.356-.356a3.674,3.674,0,0,0,1.068-2.255l.119-.95h.475c3.917,0,13.412-.237,16.261-.356h.475l.119.95a4.03,4.03,0,0,0,3.917,3.679h7.478a4.239,4.239,0,0,0,3.2-1.424,3.85,3.85,0,0,0,.95-3.323l-.593-4.036c-.119-1.068-.237-2.018-.356-3.086l.119-1.662.119-.119A22.929,22.929,0,0,0,66.888,52.19a6.946,6.946,0,0,1-.237-1.543,7.122,7.122,0,0,1-.237-2.73l.119-.356h.475a3.669,3.669,0,0,1,.95.237C69.262,48.51,72.941,46.492,69.5,44.711ZM59.291,67.145a2.436,2.436,0,0,0-.593,2.018L59.41,74.5,60,79.132H51.458l.119-.593v-.475a1.505,1.505,0,0,0-.119-.712c-.237-2.255-1.424-3.2-3.561-2.967-1.068.119-13.412.356-17.21.356h-.831c-.356,0-.593-.119-.831-.119H27.719l-.475,1.306a5.141,5.141,0,0,0-.119.593l-.119.593a8.764,8.764,0,0,1-.237,1.424l-.119.356H18.342l.831-5.935v-.593a5.323,5.323,0,0,0,.119-1.306,2.524,2.524,0,0,0-.712-1.9,18.618,18.618,0,0,1-5.222-7.715,1.917,1.917,0,0,0-1.78-1.424c-.831-.119-1.543-.237-2.374-.356L7.9,59.548V51.6h.475c.95-.119,2.136-.237,3.2-.356A2.3,2.3,0,0,0,13.595,49.7a18.481,18.481,0,0,1,4.629-7.122,2.16,2.16,0,0,0,.593-2.492c-.356-1.068-.831-2.967-1.306-4.392a.975.975,0,0,1,.119-.831,1.085,1.085,0,0,1,.831-.356H18.7a30.462,30.462,0,0,1,6.291,2.73,2.978,2.978,0,0,0,1.187.237c.356,0,.712-.119.95-.119a35.583,35.583,0,0,1,10.208-1.306c6.172,0,11.869,1.068,15.311,2.849a18.89,18.89,0,0,1,9.97,11.631.414.414,0,0,0,.119.237l.237.831c.119.356.119.831.237,1.187a19.089,19.089,0,0,1-3.917,14.362Z" transform="translate(0 -7.098)" fill="#2c2b34"/>
    <path id="Path_16" data-name="Path 16" d="M55.177,46.494a53.563,53.563,0,0,0-8.309-.712H46.63a64.5,64.5,0,0,0-7.953.593,2.708,2.708,0,0,0-1.424.712,1.943,1.943,0,0,0-.237,1.424,1.8,1.8,0,0,0,2.492,1.306,36.149,36.149,0,0,1,14.718.119c.237,0,.475.119.712.119a1.805,1.805,0,0,0,1.9-1.424,1.57,1.57,0,0,0-.237-1.424,2.069,2.069,0,0,0-1.424-.712Z" transform="translate(-7.872 -10.779)" fill="#2c2b34"/>
    <path id="Path_17" data-name="Path 17" d="M46.845,20.878a10.03,10.03,0,0,0,9.97-9.97,9.97,9.97,0,0,0-19.94,0A10.03,10.03,0,0,0,46.845,20.878Zm0-17.092a7,7,0,0,1,0,14.006,7.094,7.094,0,0,1-7-7A7.016,7.016,0,0,1,46.845,3.787Z" transform="translate(-7.85 0)" fill="#2c2b34"/>
    <path id="Path_20" data-name="Path 20" d="M8.71,6.263A5.035,5.035,0,0,0,3.633,4.916a5.473,5.473,0,0,1,3-2.1A1.424,1.424,0,0,0,7.7,1.109,1.41,1.41,0,0,0,6,.038,8.268,8.268,0,0,0,1.17,3.483,6.912,6.912,0,0,0,.212,6.225C-.21,6.447.076,9.613.4,9.411q.04.182.089.374c.623,2.457,2.181,4,4.273,4.246a4.691,4.691,0,0,0,.537.03,4.94,4.94,0,0,0,4.338-2.584,4.533,4.533,0,0,0-.923-5.214ZM7.1,10.171a2.073,2.073,0,0,1-2.018,1.036C3.974,11.079,3.47,9.984,3.241,9.09a9.178,9.178,0,0,1-.2-1.021c1.442-.543,2.819-.706,3.54.1a1.716,1.716,0,0,1,.513,2Z" transform="matrix(0.848, 0.53, -0.53, 0.848, 72.071, 31.907)" fill="#2c2b34"/>
  </g>
</svg>
