<svg xmlns="http://www.w3.org/2000/svg" xmlns:xlink="http://www.w3.org/1999/xlink" width="50" height="50" viewBox="0 0 50 50">
  <defs>
    <clipPath id="clip-path">
      <circle id="Ellipse_28" data-name="Ellipse 28" cx="23.5" cy="23.5" r="23.5" transform="translate(-0.224 -0.224)" fill="#fff" stroke="#707070" stroke-width="1"/>
    </clipPath>
  </defs>
  <g id="Group_9127" data-name="Group 9127" transform="translate(-352.727 -543.727)">
    <g id="Ellipse_27" data-name="Ellipse 27" transform="translate(352.727 543.727)" fill="#fff" stroke="#2c2b34" stroke-width="2">
      <circle cx="25" cy="25" r="25" stroke="none"/>
      <circle cx="25" cy="25" r="24" fill="none"/>
    </g>
    <g id="Mask_Group_2" data-name="Mask Group 2" transform="translate(354.951 545.951)" clip-path="url(#clip-path)">
      <path id="np_person_6124340_000000" d="M46.732,40.482A9.984,9.984,0,0,0,36.748,30.5H22.484A9.984,9.984,0,0,0,12.5,40.482v2.853a2.852,2.852,0,0,0,2.853,2.853H43.88a2.852,2.852,0,0,0,2.853-2.853ZM43.88,43.335H15.353V40.482a7.132,7.132,0,0,1,7.132-7.132H36.748a7.132,7.132,0,0,1,7.132,7.132ZM29.616,6.25a10.7,10.7,0,1,0,10.7,10.7,10.7,10.7,0,0,0-10.7-10.7Zm0,2.853a7.845,7.845,0,1,1-7.845,7.845A7.848,7.848,0,0,1,29.616,9.1Z" transform="translate(-6.341 3.228)" fill="#2c2b34" fill-rule="evenodd"/>
    </g>
  </g>
</svg>
