<svg xmlns="http://www.w3.org/2000/svg" width="37.848" height="38.67" viewBox="0 0 37.848 38.67">
  <g id="Group_9371" data-name="Group 9371" transform="translate(-380.31 -452)">
    <path id="np_person_6124340_000000" d="M39.349,33.1a7.831,7.831,0,0,0-7.831-7.831H20.331A7.831,7.831,0,0,0,12.5,33.1v2.237a2.237,2.237,0,0,0,2.237,2.237H37.112a2.237,2.237,0,0,0,2.237-2.237Zm-2.237,2.237H14.737V33.1a5.594,5.594,0,0,1,5.594-5.594H31.518A5.594,5.594,0,0,1,37.112,33.1ZM25.924,6.25a8.39,8.39,0,1,0,8.39,8.39A8.4,8.4,0,0,0,25.924,6.25Zm0,2.237a6.153,6.153,0,1,1-6.153,6.153A6.155,6.155,0,0,1,25.924,8.487Z" transform="translate(378.809 445.75)" fill="#818181" fill-rule="evenodd"/>
    <path id="Path_130_-_Outline" data-name="Path 130 - Outline" d="M22.179,30.1A2.217,2.217,0,0,0,24.4,27.924a.674.674,0,0,1,1.036-.57,2.162,2.162,0,0,0,1.678.228,2.253,2.253,0,0,0,1.346-1.036h0l1.667-2.89a2.227,2.227,0,0,0-.819-3.035.642.642,0,0,1-.331-.57.651.651,0,0,1,.342-.58,2.218,2.218,0,0,0,.808-3.025h0l-1.667-2.89A2.255,2.255,0,0,0,27.11,12.52a2.2,2.2,0,0,0-1.689.227.632.632,0,0,1-.663,0,.654.654,0,0,1-.331-.58A2.217,2.217,0,0,0,22.21,9.95H18.875a2.218,2.218,0,0,0-2.217,2.228.673.673,0,0,1-1.036.569,2.171,2.171,0,0,0-1.678-.28A2.257,2.257,0,0,0,12.6,13.5l-1.668,2.89a2.227,2.227,0,0,0,.819,3.035.643.643,0,0,1,.331.57.65.65,0,0,1-.342.58,2.218,2.218,0,0,0-.808,3.025l1.668,2.89a2.257,2.257,0,0,0,1.346,1.036,2.2,2.2,0,0,0,1.689-.228.632.632,0,0,1,.663,0,.655.655,0,0,1,.331.58A2.217,2.217,0,0,0,18.844,30.1h3.335m0-1.554H18.844a.674.674,0,0,1-.663-.673,2.2,2.2,0,0,0-1.108-1.917,2.235,2.235,0,0,0-1.109-.3h0a2.289,2.289,0,0,0-1.129.3.639.639,0,0,1-.5.073.67.67,0,0,1-.4-.311h0l-1.667-2.89a.665.665,0,0,1,.249-.912,2.216,2.216,0,0,0,0-3.843.653.653,0,0,1-.238-.9l1.667-2.89a.664.664,0,0,1,.912-.238,2.18,2.18,0,0,0,2.217,0,2.208,2.208,0,0,0,1.108-1.927.664.664,0,0,1,.663-.663h3.335a.674.674,0,0,1,.663.673,2.228,2.228,0,0,0,3.336,1.917.638.638,0,0,1,.5-.073.676.676,0,0,1,.4.311l1.719,2.89a.664.664,0,0,1-.238.912,2.217,2.217,0,0,0,0,3.843.651.651,0,0,1,.238.9l-1.719,2.89a.664.664,0,0,1-.912.238,2.18,2.18,0,0,0-2.217,0,2.208,2.208,0,0,0-1.108,1.927.663.663,0,0,1-.663.663h0m0,3.922H18.844a4.59,4.59,0,0,1-4.083-2.5,4.573,4.573,0,0,1-1.436-.152l-.016,0a4.6,4.6,0,0,1-2.758-2.125l-.005-.009-1.668-2.89A4.6,4.6,0,0,1,9.007,20a4.605,4.605,0,0,1-.133-4.78l0-.008,1.674-2.9a4.6,4.6,0,0,1,2.758-2.125l.078-.02a4.568,4.568,0,0,1,1.417-.114,4.6,4.6,0,0,1,4.071-2.47h3.336a4.59,4.59,0,0,1,4.082,2.5,4.579,4.579,0,0,1,1.436.152l.012,0A4.6,4.6,0,0,1,30.5,12.36l.007.011,1.669,2.891a4.594,4.594,0,0,1-.129,4.788,4.6,4.6,0,0,1,.133,4.78l0,.008-2.351,4.075h-.3a4.607,4.607,0,0,1-1.786.951,4.542,4.542,0,0,1-1.5.152,4.6,4.6,0,0,1-4.061,2.45Zm-1.954-6.29H20.8a4.578,4.578,0,0,1,4.941-2.842l.308-.517a4.579,4.579,0,0,1,0-5.633l-.314-.528a4.591,4.591,0,0,1-4.931-2.836h-.583A4.578,4.578,0,0,1,15.3,16.665l-.288.5A4.577,4.577,0,0,1,15,22.836l.289.5a4.657,4.657,0,0,1,.665-.049h.018a4.6,4.6,0,0,1,4.25,2.89Z" transform="translate(372.043 458.203)" fill="#f8f8f8"/>
    <path id="Path_131_-_Outline" data-name="Path 131 - Outline" d="M38.628,42.512a3.886,3.886,0,1,0-2.746-1.138,3.88,3.88,0,0,0,2.746,1.138m0-6.215h0a2.331,2.331,0,1,1-2.153,1.439A2.331,2.331,0,0,1,38.628,36.3m0,8.584a6.254,6.254,0,1,1,4.42-1.831A6.208,6.208,0,0,1,38.628,44.88Z" transform="translate(353.927 439.574)" fill="#f8f8f8"/>
    <g id="Path_130" data-name="Path 130" transform="translate(372.411 458.571)" fill="#818181">
      <path d="M 21.81120872497559 29.78089904785156 L 18.47620010375977 29.7808895111084 C 17.2260684967041 29.7808895111084 16.20900917053223 28.76383018493652 16.20900917053223 27.51370048522949 C 16.21261978149414 27.29129028320312 16.09544944763184 27.08612060546875 15.90323925018311 26.97743988037109 C 15.80948925018311 26.91988945007324 15.70371913909912 26.88995933532715 15.5958194732666 26.88995933532715 C 15.48795890808105 26.88995933532715 15.38247966766357 26.91987037658691 15.29078960418701 26.97646903991699 C 14.94456958770752 27.18063926696777 14.55000972747803 27.28829002380371 14.14890956878662 27.28829956054688 C 13.95100975036621 27.28830909729004 13.75374889373779 27.26210021972656 13.56260967254639 27.21042060852051 C 12.97881889343262 27.0482006072998 12.49019908905029 26.67201995849609 12.18641948699951 26.15109062194824 L 10.51784896850586 23.26070022583008 C 9.895759582519531 22.18095016479492 10.26639938354492 20.79326057434082 11.34404945373535 20.16727066040039 C 11.54278945922852 20.06015014648438 11.66370964050293 19.85508918762207 11.66100883483887 19.63130950927734 C 11.66370964050293 19.41168975830078 11.5466890335083 19.21023941040039 11.35561943054199 19.10436058044434 C 10.27222919464111 18.47847938537598 9.896709442138672 17.08646965026855 10.51774883270264 16.00090026855469 L 12.18630886077881 13.11052989959717 C 12.49019908905029 12.58939933776855 12.9788293838501 12.21321964263916 13.56226921081543 12.05111026763916 C 13.73498916625977 12.00935935974121 13.91086959838867 11.98839950561523 14.08665943145752 11.98839950561523 C 14.51092910766602 11.98839950561523 14.9238395690918 12.10888957977295 15.28074932098389 12.33683967590332 C 15.38142967224121 12.40128993988037 15.49770927429199 12.43533992767334 15.61706924438477 12.43533992767334 C 15.72157955169678 12.43533992767334 15.825439453125 12.40874004364014 15.91741943359375 12.35842990875244 C 16.11723899841309 12.24771022796631 16.24095916748047 12.0375394821167 16.24005889892578 11.81007957458496 C 16.23705863952637 11.20189952850342 16.47160911560059 10.6301794052124 16.90049934387207 10.20030975341797 C 17.32843017578125 9.769379615783691 17.89907836914062 9.53201961517334 18.50724983215332 9.53201961517334 L 21.84322929382324 9.53201961517334 C 23.09293937683105 9.532517433166504 24.10944938659668 10.54938507080078 24.10944938659668 11.79920959472656 C 24.10585021972656 12.02161979675293 24.22301864624023 12.22679996490479 24.41521835327148 12.33547019958496 C 24.50896835327148 12.3930196762085 24.6147289276123 12.42294979095459 24.72262954711914 12.42294979095459 C 24.83049011230469 12.42294979095459 24.93596839904785 12.39303970336914 25.02766990661621 12.33644008636475 C 25.37310981750488 12.13272953033447 25.76709938049316 12.02532958984375 26.16791915893555 12.02532958984375 C 26.36631011962891 12.02532958984375 26.56411933898926 12.05161952972412 26.75584983825684 12.10346984863281 C 27.33865928649902 12.26443004608154 27.82730865478516 12.64025020599365 28.13201904296875 13.161789894104 L 29.78521919250488 16.02721977233887 L 29.78524017333984 16.02721977233887 L 29.80064010620117 16.05225944519043 C 30.42313003540039 17.13270950317383 30.05246925354004 18.52041053771973 28.97439002990723 19.14566993713379 C 28.7757396697998 19.25362968444824 28.65475845336914 19.45871925354004 28.65744972229004 19.68160057067871 C 28.65475845336914 19.90122985839844 28.77178955078125 20.10268974304199 28.96283912658691 20.20855903625488 C 30.04622840881348 20.83443069458008 30.42174911499023 22.2264404296875 29.80072021484375 23.31200981140137 L 28.13312911987305 26.20237922668457 L 28.11870002746582 26.22739028930664 L 28.11736679077148 26.22739028930664 C 27.81198501586914 26.73660850524902 27.32962608337402 27.10346412658691 26.7561092376709 27.2618293762207 C 26.56571960449219 27.31398963928223 26.36919021606445 27.34042930603027 26.17189979553223 27.34042930603027 C 25.77322006225586 27.34042930603027 25.3814697265625 27.23251914978027 25.03900909423828 27.02836036682129 C 24.93722915649414 26.96369934082031 24.82111930847168 26.9299201965332 24.70199012756348 26.9299201965332 C 24.59719848632812 26.9299201965332 24.49312973022461 26.95655059814453 24.40102958679199 27.00693893432617 C 24.20115852355957 27.11676979064941 24.07749938964844 27.32690048217773 24.07839012145996 27.55529022216797 C 24.05570983886719 28.78299903869629 23.03866004943848 29.78089904785156 21.81120872497559 29.78089904785156 Z M 15.59593963623047 25.23682022094727 C 15.99462890625 25.23880958557129 16.38671875 25.34490013122559 16.72981834411621 25.54363059997559 C 17.43158912658691 25.9440803527832 17.86584854125977 26.69536972045898 17.86285972595215 27.50415992736816 C 17.86285972595215 27.84215927124023 18.13833999633789 28.12165069580078 18.47695922851562 28.12701034545898 L 21.81118011474609 28.12699890136719 C 21.97267913818359 28.12699890136719 22.13076019287109 28.0615406036377 22.2448902130127 27.9473991394043 C 22.35901832580566 27.83328056335449 22.42447853088379 27.67518997192383 22.42447853088379 27.5136890411377 C 22.41952896118164 26.70310020446777 22.85373878479004 25.94807052612305 23.55766868591309 25.54353904724121 C 23.90029907226562 25.3410701751709 24.29243850708008 25.23387908935547 24.6911792755127 25.23387908935547 C 25.08990859985352 25.23387908935547 25.4820499420166 25.3410701751709 25.82520866394043 25.5438404083252 C 25.92012977600098 25.60006904602051 26.02793884277344 25.62977981567383 26.13702964782715 25.62977981567383 C 26.1893196105957 25.62977981567383 26.24141883850098 25.62294960021973 26.2918701171875 25.60947036743164 C 26.45174980163574 25.56792068481445 26.58537864685059 25.46649932861328 26.6684684753418 25.32378959655762 L 28.38769912719727 22.43317985534668 C 28.47043991088867 22.29525947570801 28.4942798614502 22.12661933898926 28.45319938659668 21.97034072875977 C 28.41112899780273 21.81459999084473 28.30716896057129 21.67985916137695 28.16805839538574 21.60099983215332 C 27.46702003479004 21.19799995422363 27.03168869018555 20.4449405670166 27.03168869018555 19.63554954528809 C 27.03168869018555 18.82675933837891 27.46702003479004 18.07406997680664 28.16779899597168 17.67120933532715 C 28.31025886535645 17.58826065063477 28.41168975830078 17.45462989807129 28.45316886901855 17.29507064819336 C 28.4954891204834 17.13656997680664 28.47218894958496 16.97084999084473 28.38764953613281 16.8281307220459 L 26.66870880126953 13.93801021575928 C 26.58515930175781 13.79541015625 26.45229911804199 13.69318962097168 26.29444885253906 13.64988994598389 C 26.24560928344727 13.6369800567627 26.1948184967041 13.63037014007568 26.14392852783203 13.63037014007568 C 26.03524971008301 13.63037014007568 25.92897987365723 13.66036987304688 25.83660888671875 13.71710968017578 C 25.49098014831543 13.91533946990967 25.09922981262207 14.01972007751465 24.7024097442627 14.01974010467529 C 24.30490875244141 14.0197696685791 23.91242980957031 13.91504001617432 23.56737899780273 13.71689987182617 C 22.86833000183105 13.31546974182129 22.43038940429688 12.56478977203369 22.42445945739746 11.75780010223389 C 22.42445945739746 11.41923999786377 22.14896965026855 11.13976001739502 21.81034851074219 11.13440990447998 L 18.47616004943848 11.13441944122314 C 18.13796997070312 11.13441944122314 17.86283874511719 11.40954971313477 17.86283874511719 11.74773025512695 C 17.86779022216797 12.55832958221436 17.43357849121094 13.31336975097656 16.72964859008789 13.7178897857666 C 16.38702011108398 13.92035961151123 15.99487972259521 14.02754020690918 15.59614944458008 14.02754020690918 C 15.19741916656494 14.02754020690918 14.80527973175049 13.92035961151123 14.46210956573486 13.71758937835693 C 14.36717891693115 13.66135025024414 14.25936889648438 13.63163948059082 14.15027904510498 13.63163948059082 C 14.09798908233643 13.63163948059082 14.04590892791748 13.63846969604492 13.99545955657959 13.65194988250732 C 13.83559894561768 13.69349002838135 13.70195960998535 13.79491996765137 13.6188497543335 13.93762969970703 L 11.95145893096924 16.82766914367676 C 11.86911964416504 16.96639060974121 11.84558963775635 17.13509941101074 11.88658905029297 17.29108047485352 C 11.92772960662842 17.44672966003418 12.03130912780762 17.58137893676758 12.17074966430664 17.66042900085449 C 12.87238883972168 18.06377029418945 13.3080997467041 18.81682014465332 13.3080997467041 19.62586975097656 C 13.3080997467041 20.4343204498291 12.87238883972168 21.18700981140137 12.1710090637207 21.5902099609375 C 12.02857971191406 21.67082977294922 11.92249965667725 21.80702018737793 11.87967967987061 21.96402931213379 C 11.83614921569824 22.12450981140137 11.85780906677246 22.29130935668945 11.94068908691406 22.43362998962402 L 13.59482955932617 25.30069732666016 L 13.60919952392578 25.32393074035645 C 13.69161891937256 25.46611022949219 13.82440948486328 25.56826019287109 13.98310947418213 25.61153984069824 C 14.0317497253418 25.62446975708008 14.08230972290039 25.63108062744141 14.13306903839111 25.63108062744141 C 14.24154949188232 25.63108062744141 14.34807968139648 25.60105895996094 14.44113922119141 25.54426002502441 C 14.79223918914795 25.3438892364502 15.19099903106689 25.23784065246582 15.59557914733887 25.23685073852539 L 15.59575939178467 25.23685073852539 L 15.59593963623047 25.23682022094727 Z" stroke="none"/>
      <path d="M 21.81120872497559 29.73089981079102 C 23.02031898498535 29.73089981079102 24.00605964660645 28.76362037658691 24.02838897705078 27.55547904968262 C 24.02742958068848 27.30879974365234 24.16142845153809 27.08155059814453 24.37702941894531 26.96306991577148 C 24.59360885620117 26.8445873260498 24.85678863525391 26.85333061218262 25.06460952758789 26.98541069030762 C 25.56961059570312 27.28646850585938 26.1756477355957 27.36901664733887 26.74279975891113 27.21363067626953 C 27.30900955200195 27.05727958679199 27.79265022277832 26.6853199005127 28.0888500213623 26.17738914489746 L 28.08981895446777 26.17738914489746 L 29.7573184967041 23.28717994689941 C 30.36623001098633 22.22279930114746 30.00105857849121 20.86607933044434 28.9386100769043 20.25229072570801 C 28.73176002502441 20.13767051696777 28.60453987121582 19.91917037963867 28.60744857788086 19.68219947814941 C 28.60453987121582 19.44038963317871 28.73660850524902 19.21798896789551 28.94929885864258 19.10241889953613 C 30.00592994689941 18.48959922790527 30.3671989440918 17.13578987121582 29.7573184967041 16.07721900939941 L 29.75634002685547 16.07721900939941 L 28.0888500213623 13.18700981140137 C 27.79265022277832 12.68004989624023 27.30897903442383 12.3080997467041 26.74279975891113 12.15174007415771 C 26.17175102233887 11.99731063842773 25.56281852722168 12.07890892028809 25.05392837524414 12.37899017333984 C 24.85094833374023 12.50426864624023 24.59454727172852 12.50426864624023 24.39060974121094 12.37899017333984 C 24.18278884887695 12.26148986816406 24.0555591583252 12.03909015655518 24.05945014953613 11.79920959472656 C 24.05945014953613 10.57456016540527 23.06690979003906 9.582019805908203 21.84225845336914 9.582019805908203 L 21.84322929382324 9.582019805908203 L 18.50724983215332 9.582019805908203 C 17.91677856445312 9.582019805908203 17.35157012939453 9.817039489746094 16.93589973449707 10.23561954498291 C 16.51925849914551 10.65322017669678 16.28714942932129 11.21939945220947 16.29006004333496 11.80988025665283 C 16.29102897644043 12.05558967590332 16.15701866149902 12.28283023834229 15.94141960144043 12.40228939056396 C 15.7248477935791 12.52077007293701 15.46166706085205 12.51202964782715 15.25383949279785 12.37897968292236 C 14.75659942626953 12.06141090393066 14.15058994293213 11.96041107177734 13.57565975189209 12.09927940368652 C 13.00944900512695 12.25660991668701 12.5258092880249 12.62759971618652 12.22960948944092 13.13552951812744 L 10.56114959716797 16.02573013305664 C 9.952229499816895 17.09012031555176 10.31739902496338 18.44683074951172 11.37984943389893 19.06062889099121 C 11.58669948577881 19.17524909973145 11.7139196395874 19.39472007751465 11.71100902557373 19.63071060180664 C 11.7139196395874 19.87252044677734 11.58184909820557 20.09589958190918 11.36915969848633 20.21050071716309 C 10.31252956390381 20.82428932189941 9.951259613037109 22.17712020874023 10.56114959716797 23.2357006072998 L 12.22960948944092 26.12590026855469 C 12.5258092880249 26.63382911682129 13.0094690322876 27.00481986999512 13.57565975189209 27.16214942932129 C 14.14671325683594 27.31657028198242 14.75563049316406 27.23401069641113 15.26452922821045 26.93391990661621 C 15.46750068664551 26.80864143371582 15.72390079498291 26.80864143371582 15.92784881591797 26.93391990661621 C 16.13566970825195 27.05142021179199 16.26288986206055 27.27479934692383 16.25900840759277 27.51370048522949 C 16.25900840759277 28.73834991455078 17.25154876708984 29.73089027404785 18.47620010375977 29.73089027404785 L 21.81120872497559 29.73089981079102 M 21.81118011474609 28.17700004577637 L 18.47616958618164 28.17700004577637 C 18.10808944702148 28.17118072509766 17.81285858154297 27.87108993530273 17.81285858154297 27.50398063659668 C 17.8157901763916 26.71150970458984 17.3923397064209 25.97924995422363 16.70475959777832 25.58690071105957 C 16.36777877807617 25.39171028137207 15.98512935638428 25.28875923156738 15.59568881988525 25.28681945800781 L 15.59569931030273 25.28684997558594 C 15.20041942596436 25.28781890869141 14.81097888946533 25.39076042175293 14.46718883514404 25.58693885803223 C 14.31762027740479 25.6782283782959 14.13795852661133 25.70444488525391 13.96994972229004 25.65978050231934 C 13.79901885986328 25.6131591796875 13.65431880950928 25.5014705657959 13.56593894958496 25.3489990234375 L 13.56496906280518 25.3489990234375 L 11.89747905731201 22.45878982543945 C 11.80812931060791 22.30534934997559 11.78481960296631 22.12275886535645 11.83143901824951 21.95087051391602 C 11.87805938720703 21.77993965148926 11.99167919158936 21.6342601776123 12.14608955383301 21.54685974121094 C 12.83369922637939 21.15157890319824 13.25809955596924 20.41835021972656 13.25809955596924 19.62586975097656 C 13.25809955596924 18.83242988586426 12.83366966247559 18.09918022155762 12.14608955383301 17.70392990112305 C 11.99360942840576 17.61747932434082 11.88289928436279 17.47278022766113 11.83822917938232 17.30378913879395 C 11.79355907440186 17.13384056091309 11.81879901885986 16.95320892333984 11.90814971923828 16.80267906188965 L 13.57563972473145 13.9124698638916 C 13.66499900817871 13.75902938842773 13.81065940856934 13.6483097076416 13.98255920410156 13.60363960266113 C 14.15346145629883 13.55799007415771 14.33508014678955 13.58421897888184 14.487548828125 13.67453956604004 C 15.1712589263916 14.07854080200195 16.02103996276855 14.07854175567627 16.70473861694336 13.67453956604004 C 17.3942699432373 13.27828979492188 17.81768989562988 12.54214954376221 17.81283950805664 11.74773025512695 C 17.81283950805664 11.38158988952637 18.11001014709473 11.0844202041626 18.47616004943848 11.0844202041626 L 21.8111400604248 11.0844202041626 C 22.17922019958496 11.09022998809814 22.47445869445801 11.39031982421875 22.47445869445801 11.75743007659912 C 22.48027992248535 12.54990005493164 22.90567016601562 13.27925968170166 23.5922794342041 13.67354011535645 C 24.27888870239258 14.06783103942871 25.12285041809082 14.06880187988281 25.81044006347656 13.67451000213623 C 25.95903396606445 13.58322143554688 26.13869094848633 13.55699920654297 26.30768013000488 13.60167026519775 C 26.47762870788574 13.64828968048096 26.62233924865723 13.75996971130371 26.71167945861816 13.91244983673096 L 28.4306697845459 16.80265045166016 C 28.5209789276123 16.95511054992676 28.54719924926758 17.13672065734863 28.50156021118164 17.30764961242676 C 28.45687866210938 17.47953033447266 28.34616851806641 17.62520980834961 28.19271850585938 17.71455955505371 C 27.50511932373047 18.10984039306641 27.08168983459473 18.84306907653809 27.08168983459473 19.63554954528809 C 27.08168983459473 20.42898941040039 27.5051383972168 21.16223907470703 28.19271850585938 21.55749893188477 C 28.34519958496094 21.64394950866699 28.45590972900391 21.78865051269531 28.50156021118164 21.9576301574707 C 28.54622840881348 22.1275806427002 28.5209789276123 22.3082103729248 28.4306697845459 22.458740234375 L 26.71167945861816 25.34894943237305 C 26.62232971191406 25.50239944458008 26.47665977478027 25.61310958862305 26.30476951599121 25.65777969360352 C 26.13386917114258 25.70342826843262 25.95223999023438 25.67720794677734 25.79976844787598 25.58688926696777 C 25.11607360839844 25.18288040161133 24.26628112792969 25.18287658691406 23.58257865905762 25.58688926696777 C 22.89305877685547 25.98313903808594 22.46962928771973 26.71928024291992 22.47447967529297 27.5136890411377 C 22.47447967529297 27.6894702911377 22.40456008911133 27.85844993591309 22.28024864196777 27.98275947570801 C 22.15593910217285 28.10706901550293 21.98695945739746 28.17700004577637 21.81118011474609 28.17700004577637 L 21.81214904785156 28.17700004577637 L 21.81118011474609 28.17700004577637 M 21.81120872497559 29.83090019226074 L 18.47620010375977 29.83089065551758 C 17.19849967956543 29.83089065551758 16.15900993347168 28.7913990020752 16.15900993347168 27.51370048522949 C 16.16231918334961 27.30879974365234 16.05488967895508 27.12062072753906 15.87862968444824 27.02096939086914 C 15.7038402557373 26.91375350952148 15.48471641540527 26.9155387878418 15.31704902648926 27.01902008056641 C 14.9622688293457 27.22823905944824 14.55892944335938 27.33828926086426 14.14890956878662 27.33830070495605 C 13.94660949707031 27.33831024169922 13.74495887756348 27.31151962280273 13.54955959320068 27.25868034362793 C 12.95280933380127 27.09287071228027 12.45360946655273 26.70851898193359 12.14322948455811 26.17627906799316 L 10.47453880310059 23.28569984436035 C 9.838719367980957 22.18210983276367 10.217529296875 20.76383018493652 11.31892967224121 20.1240291595459 C 11.5026388168335 20.02499008178711 11.61348915100098 19.8370189666748 11.61101913452148 19.63191032409668 C 11.61347961425781 19.42950057983398 11.50632953643799 19.24503898620605 11.33137893676758 19.14809989929199 C 10.22344970703125 18.5080394744873 9.839679718017578 17.08547019958496 10.47434902191162 15.97606945037842 L 12.14299964904785 13.08553028106689 C 12.45360946655273 12.55289936065674 12.95281887054443 12.16856002807617 13.54888916015625 12.0029296875 C 14.15719318389893 11.85577201843262 14.79148578643799 11.96503734588623 15.3076696395874 12.29469966888428 C 15.48143291473389 12.40596580505371 15.71211242675781 12.41373157501221 15.89342880249023 12.31455993652344 C 16.07703971862793 12.21282005310059 16.19088935852051 12.01949024200439 16.19005966186523 11.81026935577393 C 16.18699836730957 11.18871974945068 16.42672920227051 10.60437965393066 16.86510848999023 10.16498947143555 C 17.30241012573242 9.724629402160645 17.88566017150879 9.482019424438477 18.50724983215332 9.482019424438477 L 21.84322929382324 9.482019424438477 C 23.1205005645752 9.482527732849121 24.15944862365723 10.52182197570801 24.15944862365723 11.79920959472656 C 24.1561393737793 12.00410938262939 24.26357841491699 12.19228935241699 24.43982887268066 12.2919397354126 C 24.61462211608887 12.39915752410889 24.83374404907227 12.39737224578857 25.00140953063965 12.29388999938965 C 25.35540962219238 12.085129737854 25.7581901550293 11.97532939910889 26.16791915893555 11.97532939910889 C 26.37069892883301 11.97532939910889 26.57289886474609 12.00220012664795 26.76889991760254 12.05521011352539 C 27.36460876464844 12.21971988677979 27.86385917663574 12.60369968414307 28.17518997192383 13.13655948638916 L 29.84396934509277 16.02729988098145 C 30.48017883300781 17.13156890869141 30.10133934020996 18.54986953735352 28.99946975708008 19.18891906738281 C 28.81594848632812 19.2886905670166 28.70497894287109 19.47671890258789 28.70743942260742 19.68099975585938 C 28.70498847961426 19.88341903686523 28.8121395111084 20.06788063049316 28.98707962036133 20.16481971740723 C 30.09501838684082 20.80487060546875 30.47878837585449 22.22743988037109 29.84412002563477 23.33683967590332 L 28.14548683166504 26.27738952636719 C 27.83281326293945 26.78509330749512 27.34626197814941 27.15073776245117 26.76941871643066 27.31002044677734 C 26.57460975646973 27.36338996887207 26.3736400604248 27.39043045043945 26.17189979553223 27.39043045043945 C 25.76420974731445 27.39043045043945 25.36360931396484 27.28007888793945 25.01339912414551 27.0713005065918 C 24.91844940185547 27.01099967956543 24.81160926818848 26.97991943359375 24.70199012756348 26.97991943359375 C 24.60556983947754 26.97991943359375 24.50978851318359 27.00442886352539 24.42502021789551 27.05080032348633 C 24.24129867553711 27.15176010131836 24.1275691986084 27.34502983093262 24.12838935852051 27.55508995056152 C 24.10519981384277 28.81097984313965 23.06572914123535 29.83090019226074 21.81120872497559 29.83090019226074 Z M 15.59618949890137 25.18681907653809 C 16.00358963012695 25.18885040283203 16.40425872802734 25.29726982116699 16.75487899780273 25.50037002563477 C 17.47198867797852 25.90957069396973 17.91591835021973 26.67757034301758 17.9128589630127 27.50435066223145 C 17.9128589630127 27.81502914428711 18.16626930236816 28.07209014892578 18.47774887084961 28.0770092010498 L 21.81118011474609 28.07699966430664 C 21.95950889587402 28.07699966430664 22.10470962524414 28.01688003540039 22.20953941345215 27.91205024719238 C 22.31435966491699 27.80722999572754 22.37447929382324 27.66202926635742 22.37447929382324 27.5136890411377 C 22.36941909790039 26.6854305267334 22.8132495880127 25.91366958618164 23.53274917602539 25.50019073486328 C 23.8825798034668 25.29347038269043 24.28351020812988 25.18387985229492 24.6911792755127 25.18387985229492 C 25.09883880615234 25.18387985229492 25.49976921081543 25.29347038269043 25.85063934326172 25.50079917907715 C 25.97971534729004 25.5772533416748 26.13624572753906 25.59930419921875 26.27895927429199 25.56117057800293 C 26.42616844177246 25.52290916442871 26.54892921447754 25.42972946166992 26.62525939941406 25.29862976074219 L 28.34471893310547 22.40761947631836 C 28.42067909240723 22.28101921081543 28.44252014160156 22.12639045715332 28.40485000610352 21.9830493927002 C 28.36631965637207 21.8404598236084 28.27095985412598 21.71681022644043 28.14340019226074 21.64448928833008 C 27.4266300201416 21.23246002197266 26.981689453125 20.46278953552246 26.981689453125 19.63554954528809 C 26.981689453125 18.80891036987305 27.4266300201416 18.03960990905762 28.14287948608398 17.62785911560059 C 28.27349853515625 17.55180931091309 28.36668014526367 17.42905044555664 28.4047794342041 17.28248977661133 C 28.44368934631348 17.13676071166992 28.42226982116699 16.98468017578125 28.34462928771973 16.85360908508301 L 26.62572860717773 13.96356964111328 C 26.54864883422852 13.83201026916504 26.42642021179199 13.73793983459473 26.28122901916504 13.69810962677002 C 26.14255523681641 13.66145706176758 25.98684692382812 13.68350315093994 25.86278915405273 13.75970935821533 C 25.50829887390137 13.96304988861084 25.10793876647949 14.06972026824951 24.70241928100586 14.06973934173584 C 24.29620933532715 14.06976985931396 23.89510917663574 13.96274948120117 23.54247856140137 13.7602596282959 C 22.82807922363281 13.35001945495605 22.38051986694336 12.58285999298096 22.37446022033691 11.75815963745117 C 22.37446022033691 11.44637966156006 22.12104988098145 11.1893196105957 21.8095588684082 11.18441009521484 L 18.47616004943848 11.18441963195801 C 18.1655387878418 11.18441963195801 17.91283988952637 11.43711948394775 17.91283988952637 11.74773025512695 C 17.91790008544922 12.57600021362305 17.47406959533691 13.34776973724365 16.75457000732422 13.76124000549316 C 16.40475845336914 13.9679594039917 16.00381851196289 14.07753944396973 15.59614944458008 14.07753944396973 C 15.18847942352295 14.07753944396973 14.78754901885986 13.9679594039917 14.43667888641357 13.76062965393066 C 14.30760478973389 13.68418788909912 14.15110874176025 13.66210842132568 14.00836944580078 13.70024967193604 C 13.86116886138916 13.73851013183594 13.7384090423584 13.83167934417725 13.66204929351807 13.96280002593994 L 11.99476909637451 16.8526496887207 C 11.91889953613281 16.9804801940918 11.89732933044434 17.13525009155273 11.93493938446045 17.27836990356445 C 11.97264957427979 17.4210205078125 12.06759929656982 17.54447937011719 12.19540882110596 17.61693954467773 C 12.91277885437012 18.02931022644043 13.35809898376465 18.79898071289062 13.35809898376465 19.62586975097656 C 13.35809898376465 20.4521598815918 12.91277885437012 21.22146034240723 12.19592952728271 21.63356018066406 C 12.06472969055176 21.70781898498535 11.96725940704346 21.83295059204102 11.92791938781738 21.97718048095703 C 11.887939453125 22.12458038330078 11.90780925750732 22.27779960632324 11.98389911651611 22.40847015380859 L 13.65245914459229 25.29884910583496 C 13.72823905944824 25.42959022521973 13.85033893585205 25.52350044250488 13.99625968933105 25.56329917907715 C 14.13489723205566 25.60015487670898 14.29004955291748 25.5778980255127 14.41508960723877 25.50157928466797 C 14.77495956420898 25.29618072509766 15.1822395324707 25.1878604888916 15.59544944763184 25.18684959411621 L 15.59618949890137 25.18681907653809 Z" stroke="none" fill="#818181"/>
    </g>
    <g id="Path_131" data-name="Path 131" transform="translate(354.296 439.943)" fill="#818181">
      <path d="M 38.25961303710938 42.19421005249023 C 37.20817184448242 42.19421005249023 36.22021484375 41.7847785949707 35.47772216796875 41.04132843017578 C 34.73433303833008 40.29891967773438 34.32490158081055 39.31095886230469 34.32490158081055 38.25949859619141 C 34.32490158081055 37.20806884765625 34.73433303833008 36.22010803222656 35.4777717590332 35.47761917114258 C 36.22019195556641 34.73421859741211 37.20815277099609 34.32478713989258 38.25961303710938 34.32478713989258 C 39.31105422973633 34.32478713989258 40.29900360107422 34.73421859741211 41.0414924621582 35.47766876220703 C 41.78488159179688 36.22007751464844 42.19431304931641 37.20803833007812 42.19431304931641 38.25949859619141 C 42.19431304931641 39.31092834472656 41.78488159179688 40.29888916015625 41.04144287109375 41.04137802124023 C 40.29903411865234 41.7847785949707 39.31108474731445 42.19421005249023 38.25961303710938 42.19421005249023 Z M 38.25960159301758 35.97871780395508 C 37.33360290527344 35.97871780395508 36.506591796875 36.53154754638672 36.15271377563477 37.38711929321289 C 35.79788208007812 38.24178695678711 35.99186325073242 39.21725845336914 36.6468620300293 39.87229919433594 C 37.07765197753906 40.3030891418457 37.65057373046875 40.54034042358398 38.26009368896484 40.54035949707031 C 38.56070327758789 40.54035949707031 38.85405349731445 40.48185729980469 39.13198471069336 40.36647033691406 C 39.98761367797852 40.01258850097656 40.54044342041016 39.18557739257812 40.54044342041016 38.25954818725586 C 40.54044342041016 37.00190734863281 39.51727294921875 35.9787483215332 38.2596321105957 35.9787483215332 L 38.25960159301758 35.97871780395508 Z" stroke="none"/>
      <path d="M 38.25961303710938 42.14420700073242 C 39.29006195068359 42.14420700073242 40.27773284912109 41.73534774780273 41.00611114501953 41.00599670410156 C 41.73545455932617 40.277587890625 42.14431381225586 39.28994750976562 42.14431381225586 38.25949859619141 C 42.14431381225586 37.22904968261719 41.73545455932617 36.24137878417969 41.00611114501953 35.51300048828125 C 40.27770233154297 34.78364944458008 39.29006195068359 34.37479019165039 38.25961303710938 34.37479019165039 C 37.22915267944336 34.37479019165039 36.24149322509766 34.78364944458008 35.51310348510742 35.51300048828125 C 34.78376388549805 36.24140930175781 34.37490463256836 37.22904968261719 34.37490463256836 38.25949859619141 C 34.37490463256836 39.28994750976562 34.78376388549805 40.27761840820312 35.51310348510742 41.00599670410156 C 36.24151229858398 41.73534774780273 37.22920227050781 42.14420700073242 38.25960159301758 42.14420700073242 L 38.25961303710938 42.14420700073242 M 38.25960159301758 35.92871856689453 L 38.2596321105957 35.92874908447266 C 39.54644393920898 35.92874908447266 40.5904426574707 36.97274780273438 40.5904426574707 38.25954818725586 C 40.5904426574707 39.20256805419922 40.02229309082031 40.05234909057617 39.15115356445312 40.41264724731445 C 38.28094482421875 40.7739372253418 37.27773666381836 40.57388305664062 36.61150360107422 39.90764999389648 C 35.94529342651367 39.24139785766602 35.74525451660156 38.23816680908203 36.10651397705078 37.36800765991211 C 36.46683120727539 36.49686813354492 37.31659317016602 35.92871856689453 38.25960159301758 35.92871856689453 M 38.25961303710938 42.24420928955078 C 37.19480133056641 42.24420928955078 36.19428253173828 41.82956695556641 35.44234466552734 41.07666778564453 C 34.68954467773438 40.32484817504883 34.27490234375 39.3243293762207 34.27490234375 38.25949859619141 C 34.27490234375 37.19469833374023 34.68954467773438 36.19417953491211 35.44243240356445 35.44223785400391 C 36.19426345825195 34.68943023681641 37.19478225708008 34.27478790283203 38.25961303710938 34.27478790283203 C 39.32441329956055 34.27478790283203 40.32493209838867 34.68943023681641 41.07687377929688 35.44232940673828 C 41.82967376708984 36.19414901733398 42.24431228637695 37.19466781616211 42.24431228637695 38.25949859619141 C 42.24431228637695 39.32429885864258 41.82967376708984 40.3248176574707 41.0767822265625 41.07675933837891 C 40.32497406005859 41.82956695556641 39.32444381713867 42.24420928955078 38.25961303710938 42.24420928955078 Z M 38.25960159301758 36.02871704101562 C 37.35390472412109 36.02871704101562 36.5450439453125 36.56942749023438 36.19892120361328 37.40622711181641 C 35.85185241699219 38.2421989440918 36.04158401489258 39.19626998901367 36.68221282958984 39.83693695068359 C 37.10356140136719 40.25827789306641 37.66393280029297 40.49033737182617 38.26009368896484 40.49036026000977 C 38.55411148071289 40.49036026000977 38.84100341796875 40.43313980102539 39.11281204223633 40.32028961181641 C 39.94974136352539 39.97414016723633 40.49044418334961 39.16526794433594 40.49044418334961 38.25954818725586 C 40.49044418334961 37.02947998046875 39.48970413208008 36.02874755859375 38.2596321105957 36.02874755859375 L 38.25960159301758 36.02871704101562 Z" stroke="none" fill="#818181"/>
    </g>
  </g>
</svg>
