<svg xmlns="http://www.w3.org/2000/svg" width="40.735" height="45.858" viewBox="0 0 40.735 45.858">
  <path id="np_pending_3872490_000000" d="M32.9,30.028H26.1a1.7,1.7,0,0,1,0-3.4h5.1V18.139a1.7,1.7,0,0,1,3.4,0V28.33a1.7,1.7,0,0,1-1.7,1.7ZM31.233,42.639C31.2,28.33,51.579,28.33,51.538,41.132,51.578,55.5,31.267,55.5,31.233,42.639Zm10.148,2.437a.992.992,0,1,0,.977.985A.991.991,0,0,0,41.381,45.076ZM42.2,37.41c-.268-.552-1.159-.476-1.522-.087-.486.52-.27,1.567-.229,2.193l.212,3.178a3.046,3.046,0,0,0,.2.919.563.563,0,0,0,1-.011,2.49,2.49,0,0,0,.2-.9l.284-3.272v0A3.942,3.942,0,0,0,42.2,37.41ZM27.853,42.953A15.846,15.846,0,0,1,16.374,30.029h2.934a1.7,1.7,0,0,0,0-3.4H16.064c0-8.05,5.051-16.089,15.133-16.9V13.1a1.7,1.7,0,0,0,3.4,0V9.725c10.4.8,15.4,8.847,15.284,16.91l-.028,0h-3.4a1.649,1.649,0,0,0-1.563,2.174,13.523,13.523,0,0,1,3.061,1.223h1.567c-.057.291-.151.573-.221.862h0a13.685,13.685,0,0,1,2.851,2.762C56.075,21.765,49.663,6.25,32.9,6.25c-25.666,0-27.06,36.321-4.244,40.357a13.492,13.492,0,0,1-.8-3.654Z" transform="translate(-12.531 -6.25)" fill="#f28b24"/>
</svg>
