<svg xmlns="http://www.w3.org/2000/svg" width="44.331" height="54.013" viewBox="0 0 44.331 54.013">
  <g id="np_share_809531_000000" transform="translate(0)">
    <path id="Path_92" data-name="Path 92" d="M21.4,31.816H14A4.91,4.91,0,0,0,9.09,36.722v27.13A4.914,4.914,0,0,0,14,68.758h34.5a4.91,4.91,0,0,0,4.914-4.906V36.722a4.914,4.914,0,0,0-4.914-4.906h-7.4a1.848,1.848,0,1,0,0,3.7h8.618V65.065H12.785V35.511H21.4l.121-.008C23.763,35.5,23.613,31.816,21.4,31.816Z" transform="translate(-9.089 -14.746)" fill-rule="evenodd"/>
    <path id="Path_93" data-name="Path 93" d="M48.437,4.547a1.985,1.985,0,0,1,1.848,1.848V34.717a1.848,1.848,0,0,1-1.848,1.848,1.985,1.985,0,0,1-1.848-1.848V6.395a1.848,1.848,0,0,1,1.848-1.848Z" transform="translate(-26.272 -2.251)" fill-rule="evenodd"/>
    <path id="Path_94" data-name="Path 94" d="M43.158.851a1.984,1.984,0,0,1,0,2.612L35.321,11.3a1.846,1.846,0,0,1-2.612,0,1.984,1.984,0,0,1,0-2.612L40.547.851a1.846,1.846,0,0,1,2.612,0Z" transform="translate(-19.687 -0.31)" fill-rule="evenodd"/>
    <path id="Path_95" data-name="Path 95" d="M57.581,11.342a1.984,1.984,0,0,1-2.612,0L47.132,3.505a1.846,1.846,0,0,1,0-2.612,1.984,1.984,0,0,1,2.612,0l7.837,7.837A1.846,1.846,0,0,1,57.581,11.342Z" transform="translate(-26.272 -0.352)" fill-rule="evenodd"/>
  </g>
</svg>
