<svg xmlns="http://www.w3.org/2000/svg" xmlns:xlink="http://www.w3.org/1999/xlink" width="134" height="134" viewBox="0 0 134 134">
  <defs>
    <clipPath id="clip-path">
      <rect id="Rectangle_70" data-name="Rectangle 70" width="81" height="69" transform="translate(0.179 0)" fill="#2c2b34"/>
    </clipPath>
  </defs>
  <g id="Group_8990" data-name="Group 8990" transform="translate(-919 -3231)">
    <g id="Group_8989" data-name="Group 8989" transform="translate(945.136 3263.501)">
      <g id="Group_3" data-name="Group 3" transform="translate(0.685 0.499)" clip-path="url(#clip-path)">
        <path id="Path_2" data-name="Path 2" d="M71.646,41.412H67.823l-5.259-8.766a10.432,10.432,0,0,0-8.9-5.039H28.555a8.2,8.2,0,0,0-7.65,5.179l-3.147,7.874c-.08.2-.11.414-.182.618A13.344,13.344,0,0,1,5.522,28.039v-.861A13.389,13.389,0,0,1,18.9,13.8H27.84a10.467,10.467,0,0,0,10.221,8.282h7.407a4.215,4.215,0,0,0,3.965-2.813c.091.008.168.052.262.052h5.522a2.761,2.761,0,0,0,0-5.522H49.695V8.282h5.522a2.761,2.761,0,0,0,0-5.522h-5.8A4.224,4.224,0,0,0,45.468,0H38.061a2.761,2.761,0,0,0,0,5.522h6.112V16.565H38.061a4.936,4.936,0,0,1-4.931-4.931,2.667,2.667,0,0,0-.061-.3,2.667,2.667,0,0,0,.061-.3,2.762,2.762,0,0,0-2.761-2.761H18.9A18.918,18.918,0,0,0,0,27.178v.861A18.912,18.912,0,0,0,16.573,46.777c0,.025-.008.05-.008.075V56.857A6.651,6.651,0,0,0,23.208,63.5h2.148a8.234,8.234,0,0,0,15.549,0h14.82a8.234,8.234,0,0,0,15.549,0h4.909a6.649,6.649,0,0,0,6.643-6.643V52.591A11.192,11.192,0,0,0,71.646,41.412M53.665,33.13a4.875,4.875,0,0,1,4.163,2.361l3.556,5.922H49.695V33.13ZM22.087,56.857V46.851a11.049,11.049,0,0,1,.8-4.138l3.147-7.877a2.708,2.708,0,0,1,2.523-1.706H44.173v8.282h-13.8a2.761,2.761,0,0,0,0,5.522h13.8V57.977H40.9a8.234,8.234,0,0,0-15.549,0H23.208a1.122,1.122,0,0,1-1.121-1.121M33.13,63.5a2.761,2.761,0,1,1,2.761-2.761A2.764,2.764,0,0,1,33.13,63.5m30.369,0a2.761,2.761,0,1,1,2.761-2.761A2.762,2.762,0,0,1,63.5,63.5m13.8-6.643a1.123,1.123,0,0,1-1.121,1.121H71.274a8.234,8.234,0,0,0-15.549,0h-6.03V46.934H71.646A5.663,5.663,0,0,1,77.3,52.591Z" transform="translate(-0.646 -0.475)" fill="#2c2b34"/>
      </g>
    </g>
    <g id="Ellipse_26" data-name="Ellipse 26" transform="translate(919 3231)" fill="none" stroke="#81c14b" stroke-width="4">
      <circle cx="67" cy="67" r="67" stroke="none"/>
      <circle cx="67" cy="67" r="65" fill="none"/>
    </g>
  </g>
</svg>
