<svg xmlns="http://www.w3.org/2000/svg" xmlns:xlink="http://www.w3.org/1999/xlink" width="134" height="134" viewBox="0 0 134 134">
  <defs>
    <clipPath id="clip-path">
      <rect id="Rectangle_69" data-name="Rectangle 69" width="75.086" height="67.035" fill="#2c2b34"/>
    </clipPath>
  </defs>
  <g id="Group_8992" data-name="Group 8992" transform="translate(-517 -3231)">
    <g id="Group_8760" data-name="Group 8760" transform="translate(546 3264)">
      <g id="Group_1" data-name="Group 1" transform="translate(0 0)" clip-path="url(#clip-path)">
        <path id="Path_1" data-name="Path 1" d="M74,24.658,43.354,1.934a9.7,9.7,0,0,0-11.622,0L1.087,24.658a2.68,2.68,0,1,0,3.191,4.307l3.77-2.792V58.918a8.125,8.125,0,0,0,8.115,8.117H29.5a2.682,2.682,0,1,0,0-5.363H16.163a2.754,2.754,0,0,1-2.751-2.754V22.2L34.926,6.24a4.317,4.317,0,0,1,5.235,0L61.678,22.2V58.918a2.755,2.755,0,0,1-2.754,2.754h-15.2a12.266,12.266,0,0,1-3.864-4.028A11.339,11.339,0,0,1,38.814,55.2a17.151,17.151,0,0,0,9.2-8.482A17.4,17.4,0,0,0,44.9,27.693a2.693,2.693,0,0,0-2.046-.882c-7.79.158-14.516,5.575-15.98,12.88a16.337,16.337,0,0,0,6.377,16.076c.054.04.121.056.177.094a17.012,17.012,0,0,0,1.8,4.478,18.039,18.039,0,0,0,6.3,6.313c.075.043.153.062.228.1a2.041,2.041,0,0,0,.233.1,2.718,2.718,0,0,0,.922.185H58.924a8.127,8.127,0,0,0,8.117-8.117V26.173l3.765,2.792A2.682,2.682,0,1,0,74,24.658M32.129,40.748a11.022,11.022,0,0,1,9.59-8.482,11.937,11.937,0,0,1,1.44,12.183,11.238,11.238,0,0,1-4.752,5.023,18.508,18.508,0,0,1,1.547-5.4,2.68,2.68,0,1,0-4.819-2.349A23.622,23.622,0,0,0,33.245,47.7a10.407,10.407,0,0,1-1.116-6.948" transform="translate(-0.001 -0.001)" fill="#2c2b34"/>
      </g>
    </g>
    <g id="Ellipse_24" data-name="Ellipse 24" transform="translate(517 3231)" fill="none" stroke="#81c14b" stroke-width="4">
      <circle cx="67" cy="67" r="67" stroke="none"/>
      <circle cx="67" cy="67" r="65" fill="none"/>
    </g>
  </g>
</svg>
