<svg xmlns="http://www.w3.org/2000/svg" width="47.265" height="55.143" viewBox="0 0 47.265 55.143">
  <path id="np_person_6124340_000000" d="M59.765,53.515A13.785,13.785,0,0,0,45.98,39.73H26.286A13.785,13.785,0,0,0,12.5,53.515v3.939a3.938,3.938,0,0,0,3.939,3.939H55.827a3.938,3.938,0,0,0,3.939-3.939Zm-3.939,3.939H16.439V53.515a9.847,9.847,0,0,1,9.847-9.847H45.98a9.847,9.847,0,0,1,9.847,9.847ZM36.133,6.25A14.771,14.771,0,1,0,50.9,21.021,14.779,14.779,0,0,0,36.133,6.25Zm0,3.939A10.832,10.832,0,1,1,25.3,21.021,10.835,10.835,0,0,1,36.133,10.189Z" transform="translate(-12.5 -6.25)" fill="#2c2b34" fill-rule="evenodd"/>
</svg>
