<svg xmlns="http://www.w3.org/2000/svg" width="47.977" height="55.973" viewBox="0 0 47.977 55.973">
  <path id="np_person_6124340_000000" d="M60.477,54.227A13.993,13.993,0,0,0,46.483,40.233H26.493A13.993,13.993,0,0,0,12.5,54.227v4a4,4,0,0,0,4,4h39.98a4,4,0,0,0,4-4Zm-4,4H16.5v-4a10,10,0,0,1,10-10h19.99a10,10,0,0,1,10,10ZM36.488,6.25A14.993,14.993,0,1,0,51.481,21.243,15,15,0,0,0,36.488,6.25Zm0,4A10.995,10.995,0,1,1,25.493,21.243,11,11,0,0,1,36.488,10.248Z" transform="translate(-12.5 -6.25)" fill="#2c2b34" fill-rule="evenodd"/>
</svg>
