<svg xmlns="http://www.w3.org/2000/svg" width="55.582" height="48.608" viewBox="0 0 55.582 48.608">
  <g id="np_menu_1166835_000000" transform="translate(-11.3 -16.097)">
    <path id="Path_23" data-name="Path 23" d="M64.076,51.563H14.033a2.733,2.733,0,0,1,0-5.466H64.149a2.733,2.733,0,1,1-.073,5.466Z" transform="translate(0 -8.429)" fill="#fff"/>
    <path id="Path_24" data-name="Path 24" d="M64.076,21.563H14.033a2.733,2.733,0,1,1,0-5.466H64.149a2.733,2.733,0,1,1-.073,5.466Z" fill="#fff"/>
    <path id="Path_25" data-name="Path 25" d="M64.076,81.563H14.033a2.733,2.733,0,1,1,0-5.466H64.149a2.733,2.733,0,1,1-.073,5.466Z" transform="translate(0 -16.858)" fill="#fff"/>
  </g>
</svg>
